name Walk3.mot
datacolumns 19
datarows 22
range 1.95000000 2.05500000
endheader

                time	   L_ground_force_vx	   L_ground_force_vy	   L_ground_force_vz	   L_ground_force_px	   L_ground_force_py	   L_ground_force_pz	   R_ground_force_vx	   R_ground_force_vy	   R_ground_force_vz	   R_ground_force_px	   R_ground_force_py	   R_ground_force_pz	   L_ground_torque_x	   L_ground_torque_y	   L_ground_torque_z	   R_ground_torque_x	   R_ground_torque_y	   R_ground_torque_z	
          1.95000000	          0.06062437	          0.23272688	         -0.00509578	         -0.00009939	          0.00000000	         -0.00001443	         -2.21246932	        523.67321226	        -33.22091663	          0.12646126	          0.00000000	          0.08130166	          0.00000000	         -0.00074782	          0.00000000	          0.00000000	          0.53238833	          0.00000000	
          1.95500000	          0.05248550	          0.20471314	         -0.00415940	         -0.00028126	          0.00000000	         -0.00003740	         -0.89390078	        520.42056367	        -32.97572119	          0.12811389	          0.00000000	          0.08106949	          0.00000000	         -0.00052420	          0.00000000	          0.00000000	          0.56657495	          0.00000000	
          1.96000000	          0.04311523	          0.17055814	         -0.00322995	         -0.00037565	          0.00000000	         -0.00004917	          0.29955051	        518.23661237	        -32.58622242	          0.12988700	          0.00000000	          0.08079793	          0.00000000	         -0.00033934	          0.00000000	          0.00000000	          0.60690066	          0.00000000	
          1.96500000	          0.03369636	          0.13516611	         -0.00237847	         -0.00040647	          0.00000000	         -0.00005283	          1.39323985	        517.19817602	        -32.04616440	          0.13177308	          0.00000000	          0.08048750	          0.00000000	         -0.00019395	          0.00000000	          0.00000000	          0.65460804	          0.00000000	
          1.97000000	          0.02499125	          0.10177989	         -0.00164432	         -0.00039409	          0.00000000	         -0.00005100	          2.41264165	        517.34188077	        -31.36055266	          0.13376311	          0.00000000	          0.08014114	          0.00000000	         -0.00008538	          0.00000000	          0.00000000	          0.71032285	          0.00000000	
          1.97500000	          0.01743233	          0.07232039	         -0.00104348	         -0.00035498	          0.00000000	         -0.00004579	          3.38496567	        518.66522908	        -30.54515024	          0.13584608	          0.00000000	          0.07976207	          0.00000000	         -0.00000900	          0.00000000	          0.00000000	          0.77414173	          0.00000000	
          1.98000000	          0.01120625	          0.04770891	         -0.00057565	         -0.00030183	          0.00000000	         -0.00003883	          4.33683872	        521.13150448	        -29.62536730	          0.13800996	          0.00000000	          0.07935303	          0.00000000	          0.00004069	          0.00000000	          0.00000000	          0.84588709	          0.00000000	
          1.98500000	          0.00632731	          0.02815285	         -0.00023011	         -0.00024387	          0.00000000	         -0.00003129	          5.28940385	        524.67413217	        -28.63419395	          0.14024515	          0.00000000	          0.07891719	          0.00000000	          0.00006934	          0.00000000	          0.00000000	          0.92489586	          0.00000000	
          1.99000000	          0.00269812	          0.01338538	          0.00000968	         -0.00018742	          0.00000000	         -0.00002399	          6.25617694	        529.19900170	        -27.61111349	          0.14254628	          0.00000000	          0.07845772	          0.00000000	          0.00008222	          0.00000000	          0.00000000	          1.01018527	          0.00000000	
          1.99500000	          0.00015741	          0.00285667	          0.00016268	         -0.00013639	          0.00000000	         -0.00001740	          7.24287835	        534.58756703	        -26.60059179	          0.14491352	          0.00000000	          0.07797813	          0.00000000	          0.00008399	          0.00000000	          0.00000000	          1.10056434	          0.00000000	
          2.00000000	         -0.00148435	         -0.00412112	          0.00024794	         -0.00009288	          0.00000000	         -0.00001181	          8.24777002	        540.69900180	        -25.64980869	          0.14735205	          0.00000000	          0.07748211	          0.00000000	          0.00007847	          0.00000000	          0.00000000	          1.19456880	          0.00000000	
          2.00500000	         -0.00241979	         -0.00826991	          0.00028300	         -0.00005764	          0.00000000	         -0.00000728	          9.26110714	        547.37353392	        -24.80622732	          0.14986859	          0.00000000	          0.07697128	          0.00000000	          0.00006873	          0.00000000	          0.00000000	          1.29044445	          0.00000000	
          2.01000000	         -0.00282829	         -0.01027640	          0.00028310	         -0.00003047	          0.00000000	         -0.00000381	         10.26593909	        554.44255683	        -24.11581504	          0.15247011	          0.00000000	          0.07644601	          0.00000000	          0.00005705	          0.00000000	          0.00000000	          1.38633341	          0.00000000	
          2.01500000	         -0.00286657	         -0.01075039	          0.00026078	         -0.00001065	          0.00000000	         -0.00000128	         11.24062401	        561.74425990	        -23.62000776	          0.15516368	          0.00000000	          0.07590693	          0.00000000	          0.00004505	          0.00000000	          0.00000000	          1.48017821	          0.00000000	
          2.02000000	         -0.00266440	         -0.01020412	          0.00022584	          0.00000291	          0.00000000	          0.00000045	         12.16079380	        569.13765404	        -23.35179402	          0.15795549	          0.00000000	          0.07535558	          0.00000000	          0.00003379	          0.00000000	          0.00000000	          1.56985690	          0.00000000	
          2.02500000	         -0.00232404	         -0.00904678	          0.00018557	          0.00001138	          0.00000000	          0.00000152	         13.00094411	        576.51419325	        -23.33209458	          0.16084946	          0.00000000	          0.07479320	          0.00000000	          0.00002389	          0.00000000	          0.00000000	          1.65329074	          0.00000000	
          2.03000000	         -0.00192197	         -0.00758911	          0.00014507	          0.00001590	          0.00000000	          0.00000208	         13.73698382	        583.80531542	        -23.56875556	          0.16384684	          0.00000000	          0.07421985	          0.00000000	          0.00001566	          0.00000000	          0.00000000	          1.72886722	          0.00000000	
          2.03500000	         -0.00151212	         -0.00605413	          0.00010763	          0.00001755	          0.00000000	          0.00000228	         14.34906342	        590.98367460	        -24.05691475	          0.16694469	          0.00000000	          0.07363451	          0.00000000	          0.00000914	          0.00000000	          0.00000000	          1.79582673	          0.00000000	
          2.04000000	         -0.00112970	         -0.00459097	          0.00007510	          0.00001722	          0.00000000	          0.00000223	         14.82311202	        598.05954125	        -24.77964445	          0.17013533	          0.00000000	          0.07303497	          0.00000000	          0.00000424	          0.00000000	          0.00000000	          1.85379722	          0.00000000	
          2.04500000	         -0.00079512	         -0.00328958	          0.00004830	          0.00001564	          0.00000000	          0.00000202	         15.15159077	        605.07497534	        -25.70964583	          0.17340858	          0.00000000	          0.07241983	          0.00000000	          0.00000076	          0.00000000	          0.00000000	          1.90246619	          0.00000000	
          2.05000000	         -0.00051768	         -0.00219486	          0.00002730	          0.00001340	          0.00000000	          0.00000172	         15.33463767	        612.09588091	        -26.81081712	          0.17675325	          0.00000000	          0.07178945	          0.00000000	         -0.00000153	          0.00000000	          0.00000000	          1.94176604	          0.00000000	
          2.05500000	         -0.00029881	         -0.00131925	          0.00001167	          0.00001089	          0.00000000	          0.00000140	         15.38115672	        619.20423296	        -28.04046898	          0.18015602	          0.00000000	          0.07114609	          0.00000000	         -0.00000288	          0.00000000	          0.00000000	          1.97180666	          0.00000000	
